<?xml version="1.0" standalone="no"?>
<!DOCTYPE svg PUBLIC "-//W3C//DTD SVG 20010904//EN"
 "http://www.w3.org/TR/2001/REC-SVG-20010904/DTD/svg10.dtd">
<svg version="1.0" xmlns="http://www.w3.org/2000/svg"
 width="512.000000pt" height="512.000000pt" viewBox="0 0 512.000000 512.000000"
 preserveAspectRatio="xMidYMid meet">

<g transform="translate(0.000000,512.000000) scale(0.100000,-0.100000)"
fill="#000000" stroke="none">
<path d="M1945 5107 c-130 -44 -216 -149 -244 -302 -23 -125 -4 -244 60 -374
75 -151 203 -249 340 -259 91 -6 154 16 224 80 188 172 173 533 -30 741 -99
102 -244 149 -350 114z"/>
<path d="M3003 5106 c-114 -37 -213 -128 -274 -250 -110 -224 -84 -468 66
-604 101 -93 226 -107 354 -42 189 95 314 365 272 586 -37 192 -154 311 -316
320 -34 2 -78 -2 -102 -10z"/>
<path d="M1283 4334 c-59 -22 -127 -86 -159 -151 -21 -43 -29 -75 -32 -138 -5
-102 9 -169 56 -265 79 -160 237 -273 386 -274 128 -1 231 70 277 193 30 82
24 239 -14 331 -95 228 -332 368 -514 304z"/>
<path d="M3623 4330 c-193 -68 -336 -278 -335 -490 1 -149 57 -252 169 -307
128 -62 291 -19 417 110 68 69 128 178 147 266 18 87 8 208 -25 274 -68 140
-222 201 -373 147z"/>
<path d="M2430 4154 c-88 -19 -173 -63 -242 -124 -51 -45 -58 -56 -58 -89 0
-20 5 -42 11 -48 9 -9 3 -28 -22 -77 -31 -61 -36 -65 -66 -64 -46 2 -67 -21
-104 -115 -30 -78 -38 -88 -154 -202 -84 -82 -131 -137 -149 -172 -80 -161
-74 -369 14 -497 88 -129 219 -196 380 -196 98 0 145 12 279 70 180 78 302 77
491 -4 137 -58 176 -67 273 -67 121 0 222 38 304 114 99 91 143 193 143 330 0
178 -40 261 -205 422 -118 115 -124 123 -155 205 -74 189 -150 313 -242 395
-130 114 -317 159 -498 119z"/>
<path d="M248 3587 c-93 -27 -173 -95 -217 -187 -48 -100 -42 -137 107 -790
143 -625 168 -714 241 -866 52 -109 291 -498 323 -526 11 -10 31 -18 44 -18
33 0 76 41 77 73 0 17 -48 103 -131 234 -153 244 -198 332 -245 474 -53 161
-301 1271 -293 1313 13 70 80 137 151 150 51 10 112 -10 157 -52 l39 -37 165
-585 c90 -321 171 -605 179 -631 12 -36 66 -107 217 -286 260 -309 264 -313
304 -313 37 0 74 38 74 75 0 27 1 26 -243 314 -109 128 -203 244 -208 258 -28
73 3 155 71 191 104 53 126 38 395 -273 200 -231 233 -264 293 -298 155 -89
308 -231 382 -357 61 -102 82 -170 87 -291 7 -136 -12 -226 -77 -369 -80 -175
-83 -189 -88 -428 l-4 -212 -424 0 -424 0 0 184 c0 293 -27 399 -157 614 -73
122 -87 138 -125 147 -22 6 -33 1 -59 -24 -40 -41 -36 -55 47 -188 127 -202
135 -237 141 -576 l5 -267 25 -20 c25 -19 41 -20 549 -20 508 0 525 1 544 20
28 28 29 40 33 300 3 261 -1 239 90 445 20 44 44 107 53 140 22 79 30 287 14
368 -43 224 -214 455 -449 607 -133 85 -153 105 -393 382 -180 207 -203 229
-257 255 l-60 28 -3 375 -3 375 -30 53 c-32 59 -66 91 -129 125 -32 17 -58 22
-121 22 -97 0 -156 -26 -216 -94 -22 -24 -40 -42 -42 -40 -1 2 -15 30 -31 62
-65 131 -235 204 -378 164z m730 -257 c18 -11 41 -34 52 -52 19 -31 20 -51 20
-384 l0 -351 -42 -19 c-23 -10 -55 -29 -70 -42 l-27 -23 -11 43 c-7 24 -36
129 -66 234 l-54 192 0 159 c0 179 9 212 71 245 44 23 86 23 127 -2z"/>
<path d="M4707 3590 c-92 -24 -173 -86 -213 -167 -16 -32 -30 -60 -31 -62 -2
-2 -20 16 -42 40 -60 68 -119 94 -216 94 -63 0 -89 -5 -121 -22 -63 -34 -97
-66 -129 -125 l-30 -53 -3 -375 -3 -375 -60 -28 c-54 -26 -77 -48 -257 -255
-240 -277 -260 -297 -393 -382 -235 -152 -406 -383 -449 -607 -16 -81 -8 -289
14 -368 9 -33 33 -96 53 -140 90 -204 86 -185 90 -445 4 -261 5 -272 33 -300
19 -19 36 -20 544 -20 501 0 525 1 547 19 24 19 24 21 30 283 6 290 14 340 73
458 18 36 148 249 291 474 257 409 331 541 380 689 34 104 95 363 95 408 0 64
-67 98 -114 57 -22 -19 -32 -47 -62 -178 -42 -186 -82 -306 -139 -421 -24 -47
-159 -270 -301 -495 -142 -225 -275 -445 -296 -490 -61 -130 -70 -181 -75
-431 l-5 -223 -423 0 -423 0 -4 213 c-5 238 -8 252 -88 427 -65 143 -84 233
-77 369 5 121 26 189 87 291 74 126 227 268 382 357 59 34 93 68 293 298 269
311 291 326 395 273 68 -36 99 -118 71 -191 -5 -14 -99 -130 -208 -258 -247
-292 -243 -286 -243 -319 0 -35 38 -70 77 -70 26 0 42 12 95 72 161 183 388
458 407 494 11 21 96 311 190 644 l170 605 39 37 c89 82 212 69 279 -31 42
-62 40 -80 -36 -416 -39 -172 -71 -321 -71 -330 0 -26 46 -65 78 -65 55 0 65
24 138 340 80 348 86 419 43 510 -52 111 -161 187 -279 195 -36 2 -82 0 -103
-5z m-438 -258 c62 -33 71 -66 71 -245 l0 -159 -54 -192 c-30 -105 -59 -210
-66 -234 l-11 -43 -27 23 c-15 13 -47 32 -70 42 l-42 19 0 351 c0 333 1 353
20 384 41 67 114 89 179 54z"/>
</g>
</svg>
